<svg id="Layer_1" data-name="Layer 1" xmlns="http://www.w3.org/2000/svg" viewBox="0 0 512 512"><title>Message</title><path d="M426.667,64H85.333a64.073,64.073,0,0,0-64,64V384a64.073,64.073,0,0,0,64,64H426.667a64.073,64.073,0,0,0,64-64V128A64.073,64.073,0,0,0,426.667,64ZM85.333,106.667H426.667a21.358,21.358,0,0,1,19.739,13.267L284.543,265.61a42.581,42.581,0,0,1-57.085,0L65.595,119.934A21.358,21.358,0,0,1,85.333,106.667ZM426.667,405.333H85.333A21.357,21.357,0,0,1,64,384V175.9L198.916,297.325a85.155,85.155,0,0,0,114.169,0L448,175.9V384A21.357,21.357,0,0,1,426.667,405.333Z" id="id_101" style="fill: rgb(255, 255, 255);"></path></svg>