<svg xmlns="http://www.w3.org/2000/svg" xml:space="preserve" width="7.1968mm" height="6.8581mm" version="1.1" style="shape-rendering:geometricPrecision; text-rendering:geometricPrecision; image-rendering:optimizeQuality; fill-rule:evenodd; clip-rule:evenodd" viewBox="0 0 720 686" xmlns:xlink="http://www.w3.org/1999/xlink">
 <defs>
  <style type="text/css">
   
    .fil0 {fill:black}
   
  </style>
 </defs>
 <g id="Layer_x0020_1">
  <metadata id="CorelCorpID_0Corel-Layer"></metadata>
  <path class="fil0" d="M50 0l619 0c28,0 51,23 51,50l0 581c0,30 -25,55 -55,55l-609 0c-31,0 -56,-25 -56,-56l0 -580c0,-27 23,-50 50,-50zm559 121l-345 377 -156 -150c-23,-23 -67,17 -40,44 29,28 167,181 196,182 26,0 346,-364 389,-411 24,-26 -18,-70 -44,-42z" id="id_104" style="fill: rgb(255, 255, 255);"></path>
 </g>
</svg>